HIERARCHY
ROOT Hips
{
	OFFSET	0.00	0.00	0.00
	CHANNELS 6 Xposition Yposition Zposition Zrotation Xrotation Yrotation
	JOINT LeftUpLeg
	{
		OFFSET	 0.126116	-0.014019	-0.065224
		CHANNELS 3 Zrotation Xrotation Yrotation
		JOINT LeftLeg
		{
			OFFSET	 0.000000	 0.000000	 0.569914
			CHANNELS 3 Zrotation Xrotation Yrotation
			JOINT LeftFoot
			{
				OFFSET	 0.000000	 0.000000	 0.544423
				CHANNELS 3 Zrotation Xrotation Yrotation
				JOINT LeftToeBase
				{
					OFFSET	 0.000000	 0.000000	 0.207117
					CHANNELS 3 Zrotation Xrotation Yrotation
					End Site
					{
						OFFSET	 0.000000	 0.000000	 0.207117
					}
				}
			}
		}
	}
	JOINT RightUpLeg
	{
		OFFSET	-0.124023	-0.008373	-0.065224
		CHANNELS 3 Zrotation Xrotation Yrotation
		JOINT RightLeg
		{
			OFFSET	 0.000000	 0.000000	 0.570047
			CHANNELS 3 Zrotation Xrotation Yrotation
			JOINT RightFoot
			{
				OFFSET	 0.000000	 0.000000	 0.544354
				CHANNELS 3 Zrotation Xrotation Yrotation
				JOINT RightToeBase
				{
					OFFSET	 0.000000	 0.000000	 0.207540
					CHANNELS 3 Zrotation Xrotation Yrotation
					End Site
					{
						OFFSET	 0.000000	 0.000000	 0.207540
					}
				}
			}
		}
	}
	JOINT Spine
	{
		OFFSET	 0.000184	-0.007763	 0.117403
		CHANNELS 3 Zrotation Xrotation Yrotation
		JOINT Spine1
		{
			OFFSET	 0.000000	 0.000000	 0.137269
			CHANNELS 3 Zrotation Xrotation Yrotation
			JOINT Spine2
			{
				OFFSET	 0.000000	 0.000000	 0.156879
				CHANNELS 3 Zrotation Xrotation Yrotation
				JOINT LeftShoulder
				{
					OFFSET	 0.080501	-0.002496	 0.160144
					CHANNELS 3 Zrotation Xrotation Yrotation
					JOINT LeftArm
					{
						OFFSET	 0.000000	 0.000000	 0.164363
						CHANNELS 3 Zrotation Xrotation Yrotation
						JOINT LeftForeArm
						{
							OFFSET	 0.000000	 0.000000	 0.364576
							CHANNELS 3 Zrotation Xrotation Yrotation
							JOINT LeftHand
							{
								OFFSET	 0.000000	 0.000000	 0.360812
								CHANNELS 3 Zrotation Xrotation Yrotation
								JOINT LeftHandIndex1
								{
									OFFSET	 0.000000	 0.000000	 0.086006
									CHANNELS 3 Zrotation Xrotation Yrotation
									JOINT LeftHandIndex2
									{
										OFFSET	 0.000000	 0.000000	 0.047236
										CHANNELS 3 Zrotation Xrotation Yrotation
										JOINT LeftHandIndex3
										{
											OFFSET	-0.004284	-0.000551	 0.038166
											CHANNELS 3 Zrotation Xrotation Yrotation
											End Site
											{
												OFFSET	-0.004284	-0.000551	 0.038166
											}
										}
									}
								}
							}
						}
					}
				}
				JOINT Neck
				{
					OFFSET	 0.000000	 0.000000	 0.176489
					CHANNELS 3 Zrotation Xrotation Yrotation
					JOINT Head
					{
						OFFSET	 0.000000	-0.001747	 0.077940
						CHANNELS 3 Zrotation Xrotation Yrotation
						End Site
						{
							OFFSET	 0.000000	-0.001747	 0.077940
						}
					}
				}
				JOINT RightShoulder
				{
					OFFSET	-0.080363	 0.000306	 0.159706
					CHANNELS 3 Zrotation Xrotation Yrotation
					JOINT RightArm
					{
						OFFSET	 0.000000	 0.000000	 0.164196
						CHANNELS 3 Zrotation Xrotation Yrotation
						JOINT RightForeArm
						{
							OFFSET	 0.000000	 0.000000	 0.365611
							CHANNELS 3 Zrotation Xrotation Yrotation
							JOINT RightHand
							{
								OFFSET	 0.000000	 0.000000	 0.360648
								CHANNELS 3 Zrotation Xrotation Yrotation
								JOINT RightHandIndex1
								{
									OFFSET	 0.000000	 0.000000	 0.069977
									CHANNELS 3 Zrotation Xrotation Yrotation
									JOINT RightHandIndex2
									{
										OFFSET	 0.000000	 0.000000	 0.052305
										CHANNELS 3 Zrotation Xrotation Yrotation
										JOINT RightHandIndex3
										{
											OFFSET	 0.009002	-0.000782	 0.042196
											CHANNELS 3 Zrotation Xrotation Yrotation
											End Site
											{
												OFFSET	 0.009002	-0.000782	 0.042196
											}
										}
									}
								}
							}
						}
					}
				}
			}
		}
	}
}
MOTION
Frames:    6
Frame Time: 0.03333334
-0.000075	 0.022827	 1.224881	-0.005201	 0.005389	 0.080780	 9.392094	-13.598210	 177.267000	 0.821738	-34.931790	-2.302749	-25.656350	 81.588050	 20.172810	-2.385833	 28.452760	 0.000004	-9.551305	-13.846810	-177.440000	-0.818678	-34.966330	 2.263305	 24.548440	 81.528430	-19.187580	 2.384658	 28.388730	 0.000004	-13.721700	 3.625920	 0.210793	-0.893254	 0.517209	-0.435308	 2.703529	-0.627952	 0.476477	-91.776190	 78.527430	 180.000000	 49.869500	 35.925910	-51.001240	-25.466230	 2.727957	-8.078132	-29.444930	 2.520568	-4.214611	-2.635965	 4.993658	 6.788941	-5.165319	 0.784187	 3.516649	-5.225038	 0.466231	 0.424329	-0.000002	-3.783157	-0.089647	 2.686700	 6.862194	-0.161126	 89.782100	 78.203870	 180.000000	 4.898415	 13.088930	 102.576800	-17.020570	 2.400635	 8.201304	 4.611068	 1.833499	-6.151277	 6.112037	 4.509576	-0.364401	 4.968462	 1.518543	-9.347576	 5.168945	 0.703820	 2.021906
-0.000062	 0.022818	 1.225424	-0.005484	 0.005602	 0.092024	 9.394692	-13.514650	 177.251900	 0.830370	-34.755020	-2.287638	-25.346780	 81.509120	 19.859090	-2.385833	 28.452760	 0.000004	-9.558309	-13.752600	-177.445700	-0.827948	-34.773240	 2.247088	 24.231840	 81.439700	-18.867180	 2.384658	 28.388730	 0.000004	-12.941820	 3.588733	 0.233304	-1.051719	 0.644808	-0.506268	 3.182644	-0.778080	 0.565102	-91.776220	 78.527450	-180.000000	 49.897310	 35.956180	-50.969980	-25.654250	 2.782283	-8.154664	-29.468250	 2.544547	-4.213044	-2.635965	 4.993658	 6.788941	-5.165319	 0.784187	 3.516649	-5.225038	 0.466231	 0.424329	-0.000002	-3.783157	-0.089647	 3.161707	 6.758218	-0.186744	 89.782070	 78.203870	-180.000000	 4.861479	 13.237480	 102.605200	-16.950750	 2.454036	 8.278232	 4.653155	 1.755649	-6.200710	 6.112037	 4.509576	-0.364401	 4.968462	 1.518543	-9.347576	 5.168945	 0.703820	 2.021906
-0.000044	 0.022803	 1.225864	-0.005544	 0.005596	 0.100683	 9.396805	-13.446150	 177.240100	 0.837355	-34.610810	-2.275364	-25.098510	 81.444620	 19.607400	-2.385833	 28.452760	 0.000004	-9.564075	-13.675580	-177.449900	-0.835444	-34.615740	 2.233922	 23.978190	 81.367190	-18.610420	 2.384658	 28.388730	 0.000004	-12.116620	 3.552147	 0.251786	-1.182979	 0.771262	-0.562861	 3.579534	-0.927375	 0.640429	-91.776210	 78.527470	-180.000000	 49.953880	 35.997060	-50.981300	-25.809250	 2.827212	-8.217140	-29.494940	 2.566532	-4.212397	-2.635965	 4.993658	 6.788941	-5.165319	 0.784187	 3.516649	-5.225038	 0.466231	 0.424329	-0.000002	-3.783157	-0.089647	 3.554099	 6.656203	-0.206756	 89.782090	 78.203900	 180.000000	 4.746598	 13.383960	 102.604300	-16.907010	 2.498199	 8.343822	 4.706403	 1.702863	-6.242558	 6.112037	 4.509576	-0.364401	 4.968462	 1.518543	-9.347576	 5.168945	 0.703820	 2.021906
-0.000010	 0.022773	 1.226249	-0.005460	 0.005427	 0.108582	 9.398486	-13.385770	 177.229600	 0.843449	-34.484310	-2.264624	-24.883870	 81.388150	 19.389720	-2.385833	 28.452760	 0.000004	-9.569363	-13.607060	-177.453800	-0.842032	-34.476260	 2.222304	 23.757350	 81.303040	-18.386810	 2.384658	 28.388730	 0.000004	-11.123790	 3.510815	 0.269397	-1.310523	 0.914806	-0.615543	 3.965219	-1.097466	 0.715684	-91.776060	 78.527470	 179.999900	 50.047570	 36.054010	-51.035560	-25.954530	 2.871213	-8.277405	-29.528770	 2.589998	-4.212304	-2.635965	 4.993658	 6.788941	-5.165319	 0.784187	 3.516649	-5.225038	 0.466231	 0.424329	-0.000002	-3.783157	-0.089647	 3.934279	 6.541800	-0.224946	 89.782170	 78.203870	 179.999900	 4.642426	 13.534160	 102.581000	-16.880900	 2.539916	 8.401752	 4.682406	 1.706410	-6.279763	 6.112037	 4.509576	-0.364401	 4.968462	 1.518543	-9.347576	 5.168945	 0.703820	 2.021906
 0.000047	 0.022720	 1.226554	-0.005213	 0.005061	 0.116250	 9.399384	-13.337820	 177.220000	 0.848210	-34.384680	-2.256194	-24.716740	 81.343990	 19.220140	-2.385833	 28.452760	 0.000004	-9.574093	-13.550900	-177.458100	-0.847341	-34.363220	 2.212915	 23.581520	 81.250980	-18.208750	 2.384658	 28.388730	 0.000004	-9.841772	 3.460701	 0.287161	-1.443255	 1.089515	-0.667580	 4.366651	-1.305426	 0.796731	-91.776150	 78.527470	 180.000000	 50.196350	 36.142350	-51.157670	-26.092810	 2.910285	-8.330916	-29.573850	 2.617224	-4.213040	-2.635965	 4.993658	 6.788941	-5.165319	 0.784187	 3.516649	-5.225038	 0.466231	 0.424329	-0.000002	-3.783157	-0.089647	 4.328509	 6.404537	-0.242301	 89.782130	 78.203850	 180.000000	 4.625238	 13.619380	 102.531400	-16.872530	 2.579898	 8.456898	 4.194964	 1.908163	-6.303613	 6.112037	 4.509576	-0.364401	 4.968462	 1.518543	-9.347576	 5.168945	 0.703820	 2.021906
 0.000094	 0.022680	 1.226901	-0.004867	 0.004604	 0.122097	 9.401021	-13.281860	 177.211800	 0.853726	-34.268760	-2.246410	-24.524440	 81.292160	 19.025050	-2.385833	 28.452760	 0.000004	-9.578892	-13.488180	-177.460400	-0.853276	-34.236010	 2.202382	 23.384630	 81.192410	-18.009260	 2.384658	 28.388730	 0.000004	-8.536630	 3.412533	 0.301337	-1.553322	 1.257878	-0.708061	 4.699532	-1.506832	 0.866536	-91.776120	 78.527450	 179.999900	 50.366990	 36.245280	-51.317400	-26.189460	 2.940718	-8.371675	-29.621920	 2.642404	-4.214557	-2.635965	 4.993658	 6.788941	-5.165319	 0.784187	 3.516649	-5.225038	 0.466231	 0.424329	-0.000002	-3.783157	-0.089647	 4.653963	 6.274332	-0.255231	 89.782150	 78.203900	 180.000000	 3.958861	 13.772890	 102.388400	-16.578810	 2.610512	 8.496568	 3.404677	 2.107119	-6.281270	 6.112037	 4.509576	-0.364401	 4.968462	 1.518543	-9.347576	 5.168945	 0.703820	 2.021906
